<svg width="320" height="320" viewBox="0 0 320 320" fill="none" xmlns="http://www.w3.org/2000/svg">
  <defs>
    <filter id="tb-logo-glow" x="0" y="0" width="320" height="320" filterUnits="userSpaceOnUse" color-interpolation-filters="sRGB">
      <feGaussianBlur stdDeviation="9"/>
    </filter>
    <radialGradient id="tb-logo-bg" cx="0" cy="0" r="1" gradientUnits="userSpaceOnUse" gradientTransform="translate(160 145) rotate(90) scale(145)">
      <stop offset="0" stop-color="#FFFDF1"/>
      <stop offset="0.76" stop-color="#FFF8DB"/>
      <stop offset="1" stop-color="#F3E49A"/>
    </radialGradient>
    <linearGradient id="tb-logo-gold" x1="58" y1="58" x2="112" y2="246" gradientUnits="userSpaceOnUse">
      <stop offset="0" stop-color="#FFC01F"/>
      <stop offset="1" stop-color="#F2AE08"/>
    </linearGradient>
    <linearGradient id="tb-logo-leaf" x1="124" y1="92" x2="214" y2="160" gradientUnits="userSpaceOnUse">
      <stop offset="0" stop-color="#9CDC60"/>
      <stop offset="1" stop-color="#73B73D"/>
    </linearGradient>
    <path id="tb-logo-grain" d="M0 0C8 -18 22 -31 39 -38C35 -17 22 5 4 14C1 10 -1 5 0 0Z"/>
    <path id="tb-logo-star" d="M0 -7L2 -2.2L7.4 -2.2L3 1L4.7 6.6L0 3.6L-4.7 6.6L-3 1L-7.4 -2.2L-2 -2.2Z"/>
  </defs>

  <g filter="url(#tb-logo-glow)">
    <circle cx="160" cy="160" r="146" fill="#FFF3A8" fill-opacity="0.52"/>
  </g>
  <circle cx="160" cy="160" r="144" fill="url(#tb-logo-bg)"/>
  <circle cx="160" cy="160" r="136" stroke="#95C693" stroke-width="1.6"/>
  <circle cx="160" cy="160" r="127" stroke="#F4E8AD" stroke-width="1"/>

  <g fill="url(#tb-logo-gold)">
    <use href="#tb-logo-grain" transform="translate(95 74) rotate(-63) scale(0.86)"/>
    <use href="#tb-logo-grain" transform="translate(83 94) rotate(-55) scale(0.9)"/>
    <use href="#tb-logo-grain" transform="translate(74 116) rotate(-46) scale(0.95)"/>
    <use href="#tb-logo-grain" transform="translate(68 141) rotate(-36) scale(1)"/>
    <use href="#tb-logo-grain" transform="translate(66 166) rotate(-25) scale(1.04)"/>
    <use href="#tb-logo-grain" transform="translate(68 192) rotate(-12) scale(1.05)"/>
    <use href="#tb-logo-grain" transform="translate(76 217) rotate(1) scale(1.03)"/>
    <use href="#tb-logo-grain" transform="translate(88 240) rotate(14) scale(0.99)"/>
    <use href="#tb-logo-grain" transform="translate(104 260) rotate(27) scale(0.95)"/>
  </g>

  <g fill="url(#tb-logo-gold)" transform="matrix(-1 0 0 1 320 0)">
    <use href="#tb-logo-grain" transform="translate(95 74) rotate(-63) scale(0.86)"/>
    <use href="#tb-logo-grain" transform="translate(83 94) rotate(-55) scale(0.9)"/>
    <use href="#tb-logo-grain" transform="translate(74 116) rotate(-46) scale(0.95)"/>
    <use href="#tb-logo-grain" transform="translate(68 141) rotate(-36) scale(1)"/>
    <use href="#tb-logo-grain" transform="translate(66 166) rotate(-25) scale(1.04)"/>
    <use href="#tb-logo-grain" transform="translate(68 192) rotate(-12) scale(1.05)"/>
    <use href="#tb-logo-grain" transform="translate(76 217) rotate(1) scale(1.03)"/>
    <use href="#tb-logo-grain" transform="translate(88 240) rotate(14) scale(0.99)"/>
    <use href="#tb-logo-grain" transform="translate(104 260) rotate(27) scale(0.95)"/>
  </g>

  <g transform="translate(74 76)">
    <path d="M83 59C83 33 105 12 141 8C132 36 116 58 92 76L83 59Z" fill="url(#tb-logo-leaf)"/>
    <path d="M80 68C58 61 44 46 39 24C63 28 80 40 89 60L80 68Z" fill="#7CC347"/>
    <path d="M95 44C98 32 108 23 120 20C117 33 108 43 95 48V44Z" fill="#A9E36D"/>
    <path d="M43 151C9 126 -1 96 7 61C12 41 22 26 39 12C43 38 51 59 64 77C76 94 83 118 80 147C73 139 64 133 55 128C55 141 51 149 43 151Z" fill="#079A45"/>
    <path d="M130 151C164 126 174 96 166 61C161 41 151 26 134 12C130 38 122 59 109 77C97 94 90 118 93 147C100 139 109 133 118 128C118 141 122 149 130 151Z" fill="#079A45"/>
    <path d="M45 152C68 160 88 164 100 164C112 164 132 160 155 152" stroke="#F2B409" stroke-width="4.6" stroke-linecap="round"/>
    <path d="M47 151C51 156 57 160 63 161" stroke="#F2B409" stroke-width="4.4" stroke-linecap="round"/>
    <path d="M153 151C149 156 143 160 137 161" stroke="#F2B409" stroke-width="4.4" stroke-linecap="round"/>
    <circle cx="97" cy="166" r="2.8" fill="#F2B409"/>
    <circle cx="103" cy="166" r="2.8" fill="#F2B409"/>
    <g fill="#F2B52B">
      <use href="#tb-logo-star" transform="translate(60 150) scale(0.75)"/>
      <use href="#tb-logo-star" transform="translate(82 147) scale(0.88)"/>
      <use href="#tb-logo-star" transform="translate(100 144) scale(1.08)"/>
      <use href="#tb-logo-star" transform="translate(118 147) scale(0.88)"/>
      <use href="#tb-logo-star" transform="translate(140 150) scale(0.75)"/>
    </g>
  </g>
</svg>
