<svg xmlns="http://www.w3.org/2000/svg" width="1200" height="700" viewBox="0 0 1200 700" role="img" aria-labelledby="title desc">
  <title id="title">Greenhouse and crops</title>
  <desc id="desc">Greenhouse silhouettes with crop rows.</desc>
  <defs>
    <linearGradient id="skyGreen" x1="0" x2="0" y1="0" y2="1">
      <stop offset="0%" stop-color="#e1f2ff"/>
      <stop offset="55%" stop-color="#cfe9d8"/>
      <stop offset="100%" stop-color="#8fc1a2"/>
    </linearGradient>
    <linearGradient id="fieldGreen" x1="0" x2="1" y1="0" y2="1">
      <stop offset="0%" stop-color="#2d6d3a"/>
      <stop offset="100%" stop-color="#5fb56f"/>
    </linearGradient>
  </defs>
  <rect width="1200" height="700" fill="url(#skyGreen)"/>
  <path d="M0 380 C240 320 460 320 700 370 C940 420 1100 420 1200 370 V700 H0 Z" fill="url(#fieldGreen)"/>
  <g fill="none" stroke="#ffffff" stroke-width="4" opacity="0.7">
    <path d="M240 260 L360 380 L120 380 Z"/>
    <path d="M420 240 L560 380 L300 380 Z"/>
    <path d="M600 260 L720 380 L480 380 Z"/>
    <path d="M780 240 L920 380 L660 380 Z"/>
  </g>
  <g stroke="#e7f7e4" stroke-width="2" opacity="0.6">
    <path d="M80 430 C260 400 440 400 660 430" fill="none"/>
    <path d="M100 480 C280 450 460 450 700 480" fill="none"/>
    <path d="M760 430 C920 400 1060 400 1160 430" fill="none"/>
  </g>
</svg>