<svg xmlns="http://www.w3.org/2000/svg" width="900" height="600" viewBox="0 0 900 600" role="img" aria-labelledby="title desc">
  <title id="title">Tam Bo - Nong nghiep xanh</title>
  <desc id="desc">Hinh minh hoa tam thoi cho khu vuc gioi thieu.</desc>
  <defs>
    <linearGradient id="bg" x1="0" x2="1" y1="0" y2="1">
      <stop offset="0%" stop-color="#dff6e3"/>
      <stop offset="100%" stop-color="#b8e0a8"/>
    </linearGradient>
  </defs>
  <rect width="900" height="600" fill="url(#bg)"/>
  <path d="M0 420 C180 360 360 360 540 420 C720 480 810 480 900 430 V600 H0 Z" fill="#7cb342"/>
  <path d="M0 470 C200 430 380 430 560 470 C740 510 820 510 900 480 V600 H0 Z" fill="#8bc34a" opacity="0.9"/>
  <circle cx="700" cy="200" r="120" fill="#ffffff" stroke="#3f7f1c" stroke-width="6"/>
  <circle cx="700" cy="200" r="95" fill="#eaf7d9"/>
  <g transform="translate(700 200)">
    <path d="M0 -60 C30 -50 60 -25 65 5 C40 20 15 40 0 60 C-20 35 -40 15 -60 5 C-45 -25 -20 -55 0 -60 Z" fill="#4c8b1f"/>
    <circle cx="35" cy="30" r="10" fill="#2f6f16"/>
    <circle cx="-30" cy="35" r="8" fill="#2f6f16"/>
  </g>
  <g fill="#1b3a1a" font-family="Roboto, Arial, sans-serif">
    <text x="60" y="120" font-size="30" font-weight="700">Nong nghiep xanh Tam Bo</text>
    <text x="60" y="165" font-size="18">Hinh anh tam thoi - se thay the sau khi van hanh</text>
  </g>
</svg>