<svg xmlns="http://www.w3.org/2000/svg" width="750" height="900" viewBox="0 0 750 900" role="img" aria-labelledby="title desc">
  <title id="title">Highland lake</title>
  <desc id="desc">Calm lake with mountains for mobile banner.</desc>
  <defs>
    <linearGradient id="skyLakeMb" x1="0" x2="0" y1="0" y2="1">
      <stop offset="0%" stop-color="#dbe9ff"/>
      <stop offset="60%" stop-color="#b7d8ff"/>
      <stop offset="100%" stop-color="#7db6d8"/>
    </linearGradient>
    <linearGradient id="mountainMb1" x1="0" x2="1" y1="0" y2="1">
      <stop offset="0%" stop-color="#5a6f87"/>
      <stop offset="100%" stop-color="#8aa2b8"/>
    </linearGradient>
    <linearGradient id="mountainMb2" x1="0" x2="1" y1="0" y2="1">
      <stop offset="0%" stop-color="#4c5f74"/>
      <stop offset="100%" stop-color="#7d95aa"/>
    </linearGradient>
    <linearGradient id="lakeMb" x1="0" x2="0" y1="0" y2="1">
      <stop offset="0%" stop-color="#8fd0e8"/>
      <stop offset="100%" stop-color="#4fa1c8"/>
    </linearGradient>
  </defs>

  <rect width="750" height="900" fill="url(#skyLakeMb)"/>

  <path d="M0 420 L140 320 L260 400 L380 300 L520 420 L640 330 L750 400 V900 H0 Z" fill="url(#mountainMb1)"/>
  <path d="M0 470 L160 370 L280 450 L420 360 L560 460 L680 380 L750 450 V900 H0 Z" fill="url(#mountainMb2)" opacity="0.9"/>

  <rect y="560" width="750" height="340" fill="url(#lakeMb)"/>
  <path d="M0 560 C160 530 320 530 560 560 C640 570 700 570 750 560" fill="none" stroke="#bfe9f5" stroke-width="3" opacity="0.7"/>
  <path d="M0 620 C180 600 340 600 580 620 C660 630 710 630 750 620" fill="none" stroke="#bfe9f5" stroke-width="2" opacity="0.6"/>

  <g fill="#3b7c5a">
    <path d="M330 560 C350 540 390 540 410 560 C390 565 350 565 330 560 Z"/>
    <rect x="372" y="560" width="8" height="20" fill="#2f6b33"/>
  </g>

  <g stroke="#2f3d4f" stroke-width="3" stroke-linecap="round" opacity="0.6">
    <path d="M560 220 C575 210 595 210 610 220"/>
    <path d="M620 230 C635 220 655 220 670 230"/>
  </g>
</svg>