<svg xmlns="http://www.w3.org/2000/svg" width="750" height="900" viewBox="0 0 750 900" role="img" aria-labelledby="title desc">
  <title id="title">Pine forest and tea hills</title>
  <desc id="desc">Tea hills with pine silhouettes for mobile banner.</desc>
  <defs>
    <linearGradient id="skyPineMb" x1="0" x2="0" y1="0" y2="1">
      <stop offset="0%" stop-color="#cfe9ff"/>
      <stop offset="60%" stop-color="#b5e1d2"/>
      <stop offset="100%" stop-color="#8cc58f"/>
    </linearGradient>
    <linearGradient id="hillTeaMb1" x1="0" x2="1" y1="0" y2="1">
      <stop offset="0%" stop-color="#2f7d32"/>
      <stop offset="100%" stop-color="#6fbf5f"/>
    </linearGradient>
    <linearGradient id="hillTeaMb2" x1="0" x2="1" y1="0" y2="1">
      <stop offset="0%" stop-color="#2b6d2e"/>
      <stop offset="100%" stop-color="#5daa58"/>
    </linearGradient>
    <linearGradient id="hillTeaMb3" x1="0" x2="1" y1="0" y2="1">
      <stop offset="0%" stop-color="#245826"/>
      <stop offset="100%" stop-color="#4f9b4a"/>
    </linearGradient>
  </defs>

  <rect width="750" height="900" fill="url(#skyPineMb)"/>

  <path d="M0 420 C160 360 320 360 750 420 V900 H0 Z" fill="url(#hillTeaMb1)"/>
  <path d="M0 520 C180 470 360 470 750 520 V900 H0 Z" fill="url(#hillTeaMb2)" opacity="0.95"/>
  <path d="M0 620 C200 580 400 580 750 620 V900 H0 Z" fill="url(#hillTeaMb3)" opacity="0.95"/>

  <g stroke="#e7f7e4" stroke-width="2" opacity="0.6">
    <path d="M40 470 C180 420 320 420 650 460" fill="none"/>
    <path d="M60 560 C200 520 360 520 690 560" fill="none"/>
    <path d="M80 660 C240 620 420 620 700 660" fill="none"/>
  </g>

  <g fill="#1f4d26" opacity="0.9">
    <polygon points="90,360 125,300 160,360"/>
    <rect x="120" y="360" width="10" height="30" fill="#2f6b33"/>
    <polygon points="190,365 225,300 260,365"/>
    <rect x="220" y="365" width="10" height="32" fill="#2f6b33"/>
    <polygon points="520,360 555,300 590,360"/>
    <rect x="550" y="360" width="10" height="30" fill="#2f6b33"/>
    <polygon points="610,365 645,300 680,365"/>
    <rect x="640" y="365" width="10" height="32" fill="#2f6b33"/>
  </g>

  <g fill="#234f2a">
    <polygon points="70,690 120,610 170,690"/>
    <rect x="115" y="690" width="12" height="40" fill="#2f6b33"/>
    <polygon points="560,700 610,610 660,700"/>
    <rect x="605" y="700" width="12" height="40" fill="#2f6b33"/>
  </g>
</svg>