<svg xmlns="http://www.w3.org/2000/svg" width="1400" height="560" viewBox="0 0 1400 560" role="img" aria-labelledby="title desc">
  <title id="title">Coffee hills</title>
  <desc id="desc">Warm sunrise over coffee hills with rows and leaves.</desc>
  <defs>
    <linearGradient id="skyCoffee" x1="0" x2="0" y1="0" y2="1">
      <stop offset="0%" stop-color="#ffe1bf"/>
      <stop offset="55%" stop-color="#f9c28d"/>
      <stop offset="100%" stop-color="#a46f4a"/>
    </linearGradient>
    <linearGradient id="hillCoffee1" x1="0" x2="1" y1="0" y2="1">
      <stop offset="0%" stop-color="#6b4a2b"/>
      <stop offset="100%" stop-color="#9c6b3e"/>
    </linearGradient>
    <linearGradient id="hillCoffee2" x1="0" x2="1" y1="0" y2="1">
      <stop offset="0%" stop-color="#5a3b23"/>
      <stop offset="100%" stop-color="#8b5a35"/>
    </linearGradient>
    <linearGradient id="hillCoffee3" x1="0" x2="1" y1="0" y2="1">
      <stop offset="0%" stop-color="#4b2f1c"/>
      <stop offset="100%" stop-color="#7b4f2f"/>
    </linearGradient>
  </defs>

  <rect width="1400" height="560" fill="url(#skyCoffee)"/>
  <circle cx="1150" cy="120" r="70" fill="#ffd6a2" opacity="0.7"/>

  <path d="M0 260 C240 210 470 210 700 255 C930 300 1160 300 1400 250 V560 H0 Z" fill="url(#hillCoffee1)"/>
  <path d="M0 330 C260 290 480 290 700 330 C920 370 1140 370 1400 320 V560 H0 Z" fill="url(#hillCoffee2)" opacity="0.96"/>
  <path d="M0 410 C280 380 500 380 700 410 C940 440 1160 440 1400 400 V560 H0 Z" fill="url(#hillCoffee3)" opacity="0.95"/>

  <g stroke="#e8c7a1" stroke-width="2" opacity="0.5">
    <path d="M80 300 C260 260 450 260 660 300" fill="none"/>
    <path d="M100 360 C300 330 500 330 700 360" fill="none"/>
    <path d="M740 280 C920 250 1120 250 1320 280" fill="none"/>
    <path d="M760 350 C960 320 1160 320 1340 350" fill="none"/>
  </g>

  <g fill="#2f6b33" opacity="0.9">
    <path d="M180 330 C200 300 240 300 260 330 C230 325 210 345 180 330 Z"/>
    <path d="M220 320 C240 290 280 290 300 320 C270 315 250 335 220 320 Z"/>
    <path d="M1040 330 C1060 300 1100 300 1120 330 C1090 325 1070 345 1040 330 Z"/>
    <path d="M1080 320 C1100 290 1140 290 1160 320 C1130 315 1110 335 1080 320 Z"/>
  </g>

  <g fill="#4b2f1c" opacity="0.8">
    <circle cx="260" cy="390" r="6"/>
    <circle cx="290" cy="405" r="5"/>
    <circle cx="1120" cy="390" r="6"/>
    <circle cx="1150" cy="405" r="5"/>
  </g>
</svg>