<svg xmlns="http://www.w3.org/2000/svg" width="1400" height="560" viewBox="0 0 1400 560" role="img" aria-labelledby="title desc">
  <title id="title">Highland lake</title>
  <desc id="desc">Calm lake with mountains and soft clouds.</desc>
  <defs>
    <linearGradient id="skyLake" x1="0" x2="0" y1="0" y2="1">
      <stop offset="0%" stop-color="#dbe9ff"/>
      <stop offset="55%" stop-color="#b7d8ff"/>
      <stop offset="100%" stop-color="#7db6d8"/>
    </linearGradient>
    <linearGradient id="mountain1" x1="0" x2="1" y1="0" y2="1">
      <stop offset="0%" stop-color="#5a6f87"/>
      <stop offset="100%" stop-color="#8aa2b8"/>
    </linearGradient>
    <linearGradient id="mountain2" x1="0" x2="1" y1="0" y2="1">
      <stop offset="0%" stop-color="#4c5f74"/>
      <stop offset="100%" stop-color="#7d95aa"/>
    </linearGradient>
    <linearGradient id="lake" x1="0" x2="0" y1="0" y2="1">
      <stop offset="0%" stop-color="#8fd0e8"/>
      <stop offset="100%" stop-color="#4fa1c8"/>
    </linearGradient>
  </defs>

  <rect width="1400" height="560" fill="url(#skyLake)"/>

  <path d="M0 280 L200 180 L360 260 L520 150 L700 260 L880 180 L1040 250 L1200 170 L1400 260 V560 H0 Z" fill="url(#mountain1)"/>
  <path d="M0 320 L220 220 L380 300 L560 210 L740 300 L920 230 L1100 290 L1280 220 L1400 300 V560 H0 Z" fill="url(#mountain2)" opacity="0.9"/>

  <rect y="360" width="1400" height="200" fill="url(#lake)"/>
  <path d="M0 360 C240 330 420 330 700 360 C980 390 1160 390 1400 360" fill="none" stroke="#bfe9f5" stroke-width="3" opacity="0.7"/>
  <path d="M0 400 C260 380 460 380 700 400 C980 420 1160 420 1400 400" fill="none" stroke="#bfe9f5" stroke-width="2" opacity="0.6"/>

  <g fill="#3b7c5a">
    <path d="M620 360 C640 340 680 340 700 360 C680 365 640 365 620 360 Z"/>
    <rect x="658" y="360" width="8" height="20" fill="#2f6b33"/>
  </g>

  <g stroke="#2f3d4f" stroke-width="3" stroke-linecap="round" opacity="0.6">
    <path d="M1000 140 C1015 130 1035 130 1050 140"/>
    <path d="M1060 150 C1075 140 1095 140 1110 150"/>
  </g>
</svg>