<svg xmlns="http://www.w3.org/2000/svg" width="1400" height="560" viewBox="0 0 1400 560" role="img" aria-labelledby="title desc">
  <title id="title">Pine forest and tea hills</title>
  <desc id="desc">Layered tea hills with pine forest silhouettes under a soft morning sky.</desc>
  <defs>
    <linearGradient id="skyPine" x1="0" x2="0" y1="0" y2="1">
      <stop offset="0%" stop-color="#cfe9ff"/>
      <stop offset="55%" stop-color="#b5e1d2"/>
      <stop offset="100%" stop-color="#8cc58f"/>
    </linearGradient>
    <linearGradient id="hillTea1" x1="0" x2="1" y1="0" y2="1">
      <stop offset="0%" stop-color="#2f7d32"/>
      <stop offset="100%" stop-color="#6fbf5f"/>
    </linearGradient>
    <linearGradient id="hillTea2" x1="0" x2="1" y1="0" y2="1">
      <stop offset="0%" stop-color="#2b6d2e"/>
      <stop offset="100%" stop-color="#5daa58"/>
    </linearGradient>
    <linearGradient id="hillTea3" x1="0" x2="1" y1="0" y2="1">
      <stop offset="0%" stop-color="#245826"/>
      <stop offset="100%" stop-color="#4f9b4a"/>
    </linearGradient>
  </defs>

  <rect width="1400" height="560" fill="url(#skyPine)"/>

  <path d="M0 260 C220 200 430 200 700 250 C970 300 1180 300 1400 250 V560 H0 Z" fill="url(#hillTea1)"/>
  <path d="M0 320 C240 270 460 270 700 320 C980 370 1160 370 1400 320 V560 H0 Z" fill="url(#hillTea2)" opacity="0.95"/>
  <path d="M0 390 C260 350 470 350 700 390 C990 440 1160 440 1400 390 V560 H0 Z" fill="url(#hillTea3)" opacity="0.95"/>

  <g stroke="#e7f7e4" stroke-width="2" opacity="0.6">
    <path d="M40 300 C220 250 420 250 680 290" fill="none"/>
    <path d="M80 350 C260 300 460 300 700 340" fill="none"/>
    <path d="M120 410 C320 360 520 360 740 400" fill="none"/>
    <path d="M720 260 C920 220 1120 220 1360 260" fill="none"/>
    <path d="M720 330 C940 290 1140 290 1360 330" fill="none"/>
    <path d="M720 400 C950 360 1150 360 1360 400" fill="none"/>
  </g>

  <g fill="#1f4d26" opacity="0.9">
    <polygon points="120,260 150,200 180,260"/>
    <rect x="145" y="260" width="10" height="30" fill="#2f6b33"/>
    <polygon points="200,255 230,190 260,255"/>
    <rect x="225" y="255" width="10" height="34" fill="#2f6b33"/>
    <polygon points="280,265 310,200 340,265"/>
    <rect x="305" y="265" width="10" height="30" fill="#2f6b33"/>
    <polygon points="1020,255 1050,190 1080,255"/>
    <rect x="1045" y="255" width="10" height="34" fill="#2f6b33"/>
    <polygon points="1100,265 1130,200 1160,265"/>
    <rect x="1125" y="265" width="10" height="30" fill="#2f6b33"/>
    <polygon points="1180,260 1210,200 1240,260"/>
    <rect x="1205" y="260" width="10" height="30" fill="#2f6b33"/>
  </g>

  <g fill="#234f2a">
    <polygon points="60,420 110,330 160,420"/>
    <rect x="104" y="420" width="12" height="40" fill="#2f6b33"/>
    <polygon points="180,430 230,330 280,430"/>
    <rect x="224" y="430" width="12" height="40" fill="#2f6b33"/>
    <polygon points="1220,430 1270,330 1320,430"/>
    <rect x="1264" y="430" width="12" height="40" fill="#2f6b33"/>
  </g>
</svg>