<svg xmlns="http://www.w3.org/2000/svg" width="600" height="800" viewBox="0 0 600 800" role="img" aria-labelledby="title desc">
  <title id="title">Tam Bo Organic Visual 2</title>
  <desc id="desc">Organic themed fallback image with crop rows and leaf accents.</desc>
  <defs>
    <linearGradient id="bg2" x1="0" x2="1" y1="0" y2="1">
      <stop offset="0%" stop-color="#f2fbea"/>
      <stop offset="100%" stop-color="#dff0d0"/>
    </linearGradient>
  </defs>
  <rect width="600" height="800" fill="url(#bg2)"/>
  <path d="M0 522 C120 476 240 470 360 512 C470 548 540 560 600 538 V800 H0 Z" fill="#5f9838"/>
  <path d="M0 612 C130 576 250 572 360 610 C480 646 548 662 600 642 V800 H0 Z" fill="#79b546" opacity="0.95"/>
  <g stroke="#dff2d6" stroke-width="5" opacity="0.68">
    <path d="M42 610 C170 570 298 570 420 608" fill="none"/>
    <path d="M58 660 C182 622 304 622 426 658" fill="none"/>
    <path d="M76 708 C196 674 316 674 438 706" fill="none"/>
  </g>
  <g transform="translate(78 144) scale(1.05)">
    <path d="M0 56 C0 22 30 0 62 0 C62 34 34 66 0 66 C0 62 0 58 0 56 Z" fill="#2f7a36" opacity="0.86"/>
    <path d="M56 68 C56 34 84 14 116 14 C116 46 88 80 56 80 C56 76 56 72 56 68 Z" fill="#6aa44d" opacity="0.86"/>
  </g>
  <circle cx="468" cy="194" r="94" fill="#ffffff" opacity="0.22"/>
</svg>
